<svg xmlns="http://www.w3.org/2000/svg" viewBox="0 0 64 64" width="64" height="64" role="img"><title>SPPO-47 ZONA ESCOLAR</title><polygon points="32.0,2.0 55.0,19.0 55.0,52.0 9.0,52.0 9.0,19.0" fill="#F47A35"/><polygon points="32.0,5.0 52.0,20.0 52.0,49.0 12.0,49.0 12.0,20.0" fill="none" stroke="#373435" stroke-width="1.8"/><g transform="translate(17.60 16.60) scale(0.720)"><g transform="translate(-7 2) scale(0.9)"><circle cx="21" cy="7" r="4" fill="#373435"/><path d="M20 12 L17 24 L12 36 M17 24 L24 36 M19 15 L12 21 M20 15 L28 20" fill="none" stroke="#373435" stroke-width="4" stroke-linecap="round"/></g><g transform="translate(9 8) scale(0.75)"><circle cx="21" cy="7" r="4" fill="#373435"/><path d="M20 12 L17 24 L12 36 M17 24 L24 36 M19 15 L12 21 M20 15 L28 20" fill="none" stroke="#373435" stroke-width="4" stroke-linecap="round"/></g></g><text x="32" y="62" font-family="Arial,Helvetica,sans-serif" font-size="8" font-weight="700" text-anchor="middle" fill="#222">SPPO-47</text></svg>
